# xmcd
#
# Track frame offsets:
#	150
#	14532
#	34285
#	49067
#	65483
#	80846
#	102434
#	119079
#	139252
#	161268
#	178292
#	198147
#	230591
#	247343
#	266876
#	283364
#	298222
#
# Disc length: 4208 seconds
#
# Revision: 1
# Processed by: cddbd v1.5.1PL0 Copyright (c) Steve Scherf et al.
# Submitted via: audiograbber 1.81.02
#
DISCID=1a106e11
DTITLE=Various Artist - The Nashville Worship Sessions CD1
DYEAR=2005
DGENRE=Rock and Roll
TTITLE0=O Lord Our God (You Are Good) 
TTITLE1=This Is The Day
TTITLE2=The Only One
TTITLE3=Jesus We Live Only For You
TTITLE4=Won't You Taste And See
TTITLE5=What Sacred Fountain
TTITLE6=Your Love Has Captured Me
TTITLE7=There's A Place Where The Streets Shine (Because Of You)
TTITLE8=You Are Mystical
TTITLE9=By Your Hand The World Was Made (Worthy)
TTITLE10=Lord You See Me Through Your Mercy (Where Truth And Mercy Meet)
TTITLE11=When The Ones You Love And Trust (Where You See Bones)
TTITLE12=Image Of Invisible God
TTITLE13=Wash Me And Cleanse Me (Psalm 51)
TTITLE14=If I Seek You
TTITLE15=O The Deep Deep Love
TTITLE16=Angels Bow
EXTD=www.gerth.de - ArtNo. 982636
EXTT0=
EXTT1=
EXTT2=
EXTT3=
EXTT4=
EXTT5=
EXTT6=
EXTT7=
EXTT8=
EXTT9=
EXTT10=
EXTT11=
EXTT12=
EXTT13=
EXTT14=
EXTT15=
EXTT16=
PLAYORDER=
